<svg width="152" height="32" viewBox="0 0 152 32" fill="none" xmlns="http://www.w3.org/2000/svg">
<g>
<path d="M8.66037 32C7.06317 32 5.61386 31.5983 4.31244 30.795C3.01102 29.9916 1.96988 28.9116 1.18903 27.5548C0.402265 26.204 0.00888062 24.6955 0.00888062 23.0293V8.88145C0.00888062 7.27476 0.402265 5.79303 1.18903 4.43626C1.96988 3.08545 3.01989 2.00837 4.33906 1.20502C5.65231 0.401672 7.09275 0 8.66037 0C10.2871 0 11.7601 0.395721 13.0793 1.18717C14.3925 1.97266 15.4337 3.03487 16.2027 4.37378C16.9717 5.71269 17.3562 7.21525 17.3562 8.88145V10.9344C17.3562 11.0535 17.2823 11.113 17.1344 11.113H12.1653C12.047 11.113 11.9879 11.0535 11.9879 10.9344V9.23849C11.9879 8.10786 11.6714 7.17062 11.0384 6.42678C10.3995 5.68294 9.60686 5.31102 8.66037 5.31102C7.80262 5.31102 7.04247 5.66806 6.37993 6.38215C5.71147 7.09623 5.37724 7.92933 5.37724 8.88145V23.0293C5.37724 24.0112 5.7026 24.8502 6.35331 25.5464C7.00402 26.2486 7.77304 26.5997 8.66037 26.5997C9.60686 26.5997 10.3995 26.2576 11.0384 25.5732C11.6714 24.8889 11.9879 24.0409 11.9879 23.0293V20.8424H8.8822C8.73431 20.8424 8.66037 20.768 8.66037 20.6192V15.6206C8.66037 15.4719 8.73431 15.3975 8.8822 15.3975H17.1788C17.2971 15.3975 17.3562 15.4719 17.3562 15.6206V23.0293C17.3562 24.6955 16.9658 26.204 16.1849 27.5548C15.3982 28.9116 14.3541 29.9916 13.0527 30.795C11.7512 31.5983 10.2871 32 8.66037 32ZM18.8647 31.3305L24.3662 0.669456C24.3957 0.550442 24.4697 0.490934 24.588 0.490934H31.0211C31.1395 0.490934 31.2134 0.550442 31.243 0.669456L36.5226 31.3305C36.5522 31.4793 36.493 31.5537 36.3451 31.5537H31.4204C31.3021 31.5537 31.2282 31.4793 31.1986 31.3305L30.7106 28.0725H24.6767L24.1887 31.3305C24.1591 31.4793 24.0852 31.5537 23.9669 31.5537H19.0422C18.9238 31.5537 18.8647 31.4793 18.8647 31.3305ZM27.5605 10.7559L25.5641 23.2971H29.8232L28.0042 10.7559L27.738 9.1046L27.5605 10.7559ZM44.5086 31.5537H39.4952C39.3769 31.5537 39.3177 31.4793 39.3177 31.3305L39.4064 0.669456C39.4064 0.550442 39.4656 0.490934 39.5839 0.490934H44.9966C45.1149 0.490934 45.2185 0.550442 45.3072 0.669456L49.3446 6.56067L53.3819 0.669456C53.4706 0.550442 53.5742 0.490934 53.6925 0.490934H59.1496C59.2679 0.490934 59.327 0.550442 59.327 0.669456L59.4158 31.3305C59.4158 31.4793 59.3566 31.5537 59.2383 31.5537H54.2249C54.1066 31.5537 54.0474 31.4793 54.0474 31.3305L54.003 8.56904L49.3446 15.3529L44.7304 8.56904L44.6861 31.3305C44.6861 31.4793 44.6269 31.5537 44.5086 31.5537ZM77.6416 31.5537H63.3112C63.1928 31.5537 63.1337 31.4793 63.1337 31.3305L63.1781 0.669456C63.1781 0.550442 63.2372 0.490934 63.3555 0.490934H77.5972C77.7155 0.490934 77.7747 0.565318 77.7747 0.714086V5.71269C77.7747 5.8317 77.7155 5.89121 77.5972 5.89121H68.5021V12.8536H77.5972C77.7155 12.8536 77.7747 12.9131 77.7747 13.0321L77.819 18.0753C77.819 18.1943 77.7599 18.2538 77.6416 18.2538H68.5021V26.0642H77.6416C77.7599 26.0642 77.819 26.1385 77.819 26.2873V31.3752C77.819 31.4942 77.7599 31.5537 77.6416 31.5537ZM89.0438 32C87.4466 32 85.9914 31.5894 84.6781 30.7682C83.359 29.953 82.3089 28.8669 81.5281 27.5102C80.7413 26.1594 80.3479 24.6657 80.3479 23.0293V20.9763C80.3479 20.8275 80.4219 20.7531 80.5698 20.7531H85.5388C85.6571 20.7531 85.7163 20.8275 85.7163 20.9763V23.0293C85.7163 24.0112 86.0417 24.8502 86.6924 25.5464C87.3431 26.2486 88.1269 26.5997 89.0438 26.5997C89.9607 26.5997 90.7445 26.2427 91.3952 25.5286C92.0459 24.8145 92.3713 23.9814 92.3713 23.0293C92.3713 21.9284 91.6614 20.9763 90.2417 20.1729C89.7684 19.9052 89.029 19.4886 88.0234 18.9233C87.0177 18.358 86.0712 17.8224 85.1839 17.3166C83.5571 16.3645 82.3533 15.1654 81.5725 13.7194C80.7857 12.2793 80.3923 10.6518 80.3923 8.83682C80.3923 7.17062 80.7916 5.67401 81.5902 4.347C82.3888 3.02594 83.4477 1.97861 84.7669 1.20502C86.0801 0.431426 87.5058 0.0446297 89.0438 0.0446297C90.6114 0.0446297 92.0548 0.437377 93.374 1.22287C94.6872 2.01432 95.7372 3.07057 96.524 4.39163C97.3049 5.71864 97.6953 7.20037 97.6953 8.83682V12.4965C97.6953 12.6155 97.6361 12.675 97.5178 12.675H92.5488C92.4305 12.675 92.3713 12.6155 92.3713 12.4965L92.3269 8.83682C92.3269 7.79544 92.0016 6.94747 91.3509 6.29289C90.7001 5.63831 89.9311 5.31102 89.0438 5.31102C88.1269 5.31102 87.3431 5.65913 86.6924 6.35537C86.0417 7.05755 85.7163 7.8847 85.7163 8.83682C85.7163 9.81869 85.9233 10.6369 86.3374 11.2915C86.7515 11.9461 87.5058 12.5709 88.6001 13.166C88.748 13.2552 89.0379 13.4099 89.4697 13.6301C89.8956 13.8563 90.36 14.1092 90.8628 14.3888C91.3657 14.6745 91.8182 14.9214 92.2204 15.1297C92.6168 15.338 92.8593 15.4719 92.9481 15.5314C94.4269 16.3645 95.5953 17.3821 96.453 18.5841C97.3108 19.7921 97.7397 21.2738 97.7397 23.0293C97.7397 24.7252 97.3492 26.2516 96.5684 27.6084C95.7816 28.9592 94.7316 30.0273 93.4183 30.8128C92.0992 31.6043 90.641 32 89.0438 32ZM110.074 31.5537H105.06C104.942 31.5537 104.883 31.4793 104.883 31.3305V5.89121H99.115C98.9671 5.89121 98.8932 5.81683 98.8932 5.66806L98.9376 0.669456C98.9376 0.550442 98.9967 0.490934 99.115 0.490934H115.974C116.122 0.490934 116.196 0.550442 116.196 0.669456V5.66806C116.196 5.81683 116.137 5.89121 116.019 5.89121H110.207L110.251 31.3305C110.251 31.4793 110.192 31.5537 110.074 31.5537ZM114.821 31.3305L120.322 0.669456C120.352 0.550442 120.426 0.490934 120.544 0.490934H126.977C127.096 0.490934 127.17 0.550442 127.199 0.669456L132.479 31.3305C132.508 31.4793 132.449 31.5537 132.301 31.5537H127.377C127.258 31.5537 127.184 31.4793 127.155 31.3305L126.667 28.0725H120.633L120.145 31.3305C120.115 31.4793 120.041 31.5537 119.923 31.5537H114.998C114.88 31.5537 114.821 31.4793 114.821 31.3305ZM123.517 10.7559L121.52 23.2971H125.779L123.96 10.7559L123.694 9.1046L123.517 10.7559ZM140.101 31.5537H135.664C135.428 31.5537 135.309 31.4496 135.309 31.2413L135.265 0.847975C135.265 0.609946 135.383 0.490934 135.62 0.490934H139.613L147.111 18.0753L146.889 0.847975C146.889 0.609946 147.022 0.490934 147.288 0.490934H151.681C151.858 0.490934 151.947 0.609946 151.947 0.847975L151.991 31.2859C151.991 31.4644 151.917 31.5537 151.769 31.5537H147.865L140.19 15.1297L140.5 31.1967C140.5 31.4347 140.367 31.5537 140.101 31.5537Z" fill="#ffffff" />
</g>
</svg>
